<?xml version="1.0" encoding="UTF-8" standalone="no"?>
<!DOCTYPE svg PUBLIC "-//W3C//DTD SVG 1.1//EN"
 "http://www.w3.org/Graphics/SVG/1.1/DTD/svg11.dtd">
<!-- Generated by graphviz version 2.40.1 (20161225.0304)
 -->
<!-- Title: state transitions Pages: 1 -->
<svg width="430pt" height="200pt"
 viewBox="0.00 0.00 430.00 200.00" xmlns="http://www.w3.org/2000/svg" xmlns:xlink="http://www.w3.org/1999/xlink">
<g id="graph0" class="graph" transform="scale(1 1) rotate(0) translate(4 196)">
<title>state transitions</title>
<polygon fill="#ffffff" stroke="transparent" points="-4,4 -4,-196 426,-196 426,4 -4,4"/>
<g id="clust1" class="cluster state regular">
<title>cluster_r_State</title>
<path fill="none" stroke="#000000" stroke-width="2" d="M20,-8C20,-8 402,-8 402,-8 408,-8 414,-14 414,-20 414,-20 414,-172 414,-172 414,-178 408,-184 402,-184 402,-184 20,-184 20,-184 14,-184 8,-178 8,-172 8,-172 8,-20 8,-20 8,-14 14,-8 20,-8"/>
<text text-anchor="start" x="191.6602" y="-165.2" font-family="Helvetica,sans-Serif" font-size="12.00" fill="#000000">r_State</text>
</g>
<!-- r_State -->
<!-- s_IDLE -->
<g id="node2" class="node state regular">
<title>s_IDLE</title>
<polygon fill="#ffffff" fill-opacity="0.003922" stroke="transparent" stroke-width="2" points="163.5,-146 102.5,-146 102.5,-110 163.5,-110 163.5,-146"/>
<text text-anchor="start" x="113.829" y="-124.2" font-family="Helvetica,sans-Serif" font-size="12.00" fill="#000000">s_IDLE</text>
<path fill="none" stroke="#000000" stroke-width="2" d="M114.8333,-111C114.8333,-111 151.1667,-111 151.1667,-111 156.8333,-111 162.5,-116.6667 162.5,-122.3333 162.5,-122.3333 162.5,-133.6667 162.5,-133.6667 162.5,-139.3333 156.8333,-145 151.1667,-145 151.1667,-145 114.8333,-145 114.8333,-145 109.1667,-145 103.5,-139.3333 103.5,-133.6667 103.5,-133.6667 103.5,-122.3333 103.5,-122.3333 103.5,-116.6667 109.1667,-111 114.8333,-111"/>
</g>
<!-- s_TRANSMIT -->
<g id="node3" class="node state regular">
<title>s_TRANSMIT</title>
<polygon fill="#ffffff" fill-opacity="0.003922" stroke="transparent" stroke-width="2" points="189.5,-52 94.5,-52 94.5,-16 189.5,-16 189.5,-52"/>
<text text-anchor="start" x="105.5034" y="-30.2" font-family="Helvetica,sans-Serif" font-size="12.00" fill="#000000">s_TRANSMIT</text>
<path fill="none" stroke="#000000" stroke-width="2" d="M106.8333,-17C106.8333,-17 177.1667,-17 177.1667,-17 182.8333,-17 188.5,-22.6667 188.5,-28.3333 188.5,-28.3333 188.5,-39.6667 188.5,-39.6667 188.5,-45.3333 182.8333,-51 177.1667,-51 177.1667,-51 106.8333,-51 106.8333,-51 101.1667,-51 95.5,-45.3333 95.5,-39.6667 95.5,-39.6667 95.5,-28.3333 95.5,-28.3333 95.5,-22.6667 101.1667,-17 106.8333,-17"/>
</g>
<!-- s_IDLE&#45;&gt;s_TRANSMIT -->
<g id="edge1" class="edge transition">
<title>s_IDLE&#45;&gt;s_TRANSMIT</title>
<path fill="none" stroke="#000000" d="M102.2627,-122.5374C85.3218,-117.7879 65.6786,-109.0258 55.322,-93 49.5325,-84.0413 49.3564,-77.8425 55.322,-69 62.4122,-58.4906 73.2462,-51.136 84.879,-45.9895"/>
<polygon fill="#000000" stroke="#000000" points="86.2715,-49.2034 94.3233,-42.3173 83.7347,-42.6792 86.2715,-49.2034"/>
<text text-anchor="start" x="55" y="-78" font-family="Helvetica,sans-Serif" font-size="10.00" fill="#000000">r_Send = &#39;0&#39; and i_Send = &#39;1&#39; &#160;&#160;</text>
</g>
<!-- s_TRANSMIT&#45;&gt;s_IDLE -->
<g id="edge2" class="edge transition">
<title>s_TRANSMIT&#45;&gt;s_IDLE</title>
<path fill="none" stroke="#000000" d="M178.0993,-52.0469C184.0975,-56.7179 189.4977,-62.3487 193,-69 197.9698,-78.4382 198.3126,-83.7505 193,-93 188.2803,-101.2171 180.8051,-107.6873 172.7106,-112.7089"/>
<polygon fill="#000000" stroke="#000000" points="170.8704,-109.7262 163.7852,-117.6034 174.2363,-115.864 170.8704,-109.7262"/>
<text text-anchor="start" x="196" y="-84" font-family="Helvetica,sans-Serif" font-size="10.00" fill="#000000">not (r_Bit_Width_Cntr &gt; 0) &#160;&#160;</text>
<text text-anchor="start" x="196" y="-72" font-family="Helvetica,sans-Serif" font-size="10.00" fill="#000000">not (r_Bit_Index &lt; (c_Packet_Width &#45; 1)) &#160;&#160;</text>
</g>
</g>
</svg>
