<?xml version="1.0" encoding="UTF-8" standalone="no"?>
<!DOCTYPE svg PUBLIC "-//W3C//DTD SVG 1.1//EN"
 "http://www.w3.org/Graphics/SVG/1.1/DTD/svg11.dtd">
<!-- Generated by graphviz version 2.40.1 (20161225.0304)
 -->
<!-- Title: state transitions Pages: 1 -->
<svg width="452pt" height="388pt"
 viewBox="0.00 0.00 452.00 388.00" xmlns="http://www.w3.org/2000/svg" xmlns:xlink="http://www.w3.org/1999/xlink">
<g id="graph0" class="graph" transform="scale(1 1) rotate(0) translate(4 384)">
<title>state transitions</title>
<polygon fill="#ffffff" stroke="transparent" points="-4,4 -4,-384 448,-384 448,4 -4,4"/>
<g id="clust1" class="cluster state regular">
<title>cluster_r_State</title>
<path fill="none" stroke="#000000" stroke-width="2" d="M20,-8C20,-8 424,-8 424,-8 430,-8 436,-14 436,-20 436,-20 436,-360 436,-360 436,-366 430,-372 424,-372 424,-372 20,-372 20,-372 14,-372 8,-366 8,-360 8,-360 8,-20 8,-20 8,-14 14,-8 20,-8"/>
<text text-anchor="start" x="202.6602" y="-353.2" font-family="Helvetica,sans-Serif" font-size="12.00" fill="#000000">r_State</text>
</g>
<!-- r_State -->
<!-- s_IDLE -->
<g id="node2" class="node state regular">
<title>s_IDLE</title>
<polygon fill="#ffffff" fill-opacity="0.003922" stroke="transparent" stroke-width="2" points="226.5,-334 165.5,-334 165.5,-298 226.5,-298 226.5,-334"/>
<text text-anchor="start" x="176.829" y="-312.2" font-family="Helvetica,sans-Serif" font-size="12.00" fill="#000000">s_IDLE</text>
<path fill="none" stroke="#000000" stroke-width="2" d="M177.8333,-299C177.8333,-299 214.1667,-299 214.1667,-299 219.8333,-299 225.5,-304.6667 225.5,-310.3333 225.5,-310.3333 225.5,-321.6667 225.5,-321.6667 225.5,-327.3333 219.8333,-333 214.1667,-333 214.1667,-333 177.8333,-333 177.8333,-333 172.1667,-333 166.5,-327.3333 166.5,-321.6667 166.5,-321.6667 166.5,-310.3333 166.5,-310.3333 166.5,-304.6667 172.1667,-299 177.8333,-299"/>
</g>
<!-- s_ADJUST_SAMPLER -->
<g id="node3" class="node state regular">
<title>s_ADJUST_SAMPLER</title>
<polygon fill="#ffffff" fill-opacity="0.003922" stroke="transparent" stroke-width="2" points="198.5,-240 53.5,-240 53.5,-204 198.5,-204 198.5,-240"/>
<text text-anchor="start" x="64.8284" y="-218.2" font-family="Helvetica,sans-Serif" font-size="12.00" fill="#000000">s_ADJUST_SAMPLER</text>
<path fill="none" stroke="#000000" stroke-width="2" d="M65.8333,-205C65.8333,-205 186.1667,-205 186.1667,-205 191.8333,-205 197.5,-210.6667 197.5,-216.3333 197.5,-216.3333 197.5,-227.6667 197.5,-227.6667 197.5,-233.3333 191.8333,-239 186.1667,-239 186.1667,-239 65.8333,-239 65.8333,-239 60.1667,-239 54.5,-233.3333 54.5,-227.6667 54.5,-227.6667 54.5,-216.3333 54.5,-216.3333 54.5,-210.6667 60.1667,-205 65.8333,-205"/>
</g>
<!-- s_IDLE&#45;&gt;s_ADJUST_SAMPLER -->
<g id="edge1" class="edge transition">
<title>s_IDLE&#45;&gt;s_ADJUST_SAMPLER</title>
<path fill="none" stroke="#000000" d="M165.2938,-312.7816C127.9057,-308.1558 68.061,-298.2291 54.576,-281 48.0016,-272.6003 48.9319,-266.0511 54.576,-257 57.026,-253.071 60.0596,-249.5709 63.4818,-246.4545"/>
<polygon fill="#000000" stroke="#000000" points="65.7571,-249.1193 71.5188,-240.2281 61.47,-243.5856 65.7571,-249.1193"/>
<text text-anchor="start" x="54" y="-266" font-family="Helvetica,sans-Serif" font-size="10.00" fill="#000000">r_Rx = &#39;1&#39; and i_Rx = &#39;0&#39; &#160;&#160;</text>
</g>
<!-- s_ADJUST_SAMPLER&#45;&gt;s_IDLE -->
<g id="edge2" class="edge transition">
<title>s_ADJUST_SAMPLER&#45;&gt;s_IDLE</title>
<path fill="none" stroke="#000000" d="M153.0329,-240.1145C159.146,-245.0799 165.2312,-250.8166 170,-257 177.1489,-266.2695 182.7959,-277.8115 186.9751,-288.2225"/>
<polygon fill="#000000" stroke="#000000" points="183.7548,-289.6038 190.5333,-297.7465 190.3121,-287.1539 183.7548,-289.6038"/>
<text text-anchor="start" x="183" y="-272" font-family="Helvetica,sans-Serif" font-size="10.00" fill="#000000">i_Rx = &#39;1&#39; &#160;&#160;</text>
<text text-anchor="start" x="183" y="-260" font-family="Helvetica,sans-Serif" font-size="10.00" fill="#000000">not (r_Bit_Width_Cntr &gt; (c_Clks_Per_Bit / 2)) &#160;&#160;</text>
</g>
<!-- s_RECEIVE -->
<g id="node4" class="node state regular">
<title>s_RECEIVE</title>
<polygon fill="#ffffff" fill-opacity="0.003922" stroke="transparent" stroke-width="2" points="180.5,-146 93.5,-146 93.5,-110 180.5,-110 180.5,-146"/>
<text text-anchor="start" x="104.8288" y="-124.2" font-family="Helvetica,sans-Serif" font-size="12.00" fill="#000000">s_RECEIVE</text>
<path fill="none" stroke="#000000" stroke-width="2" d="M105.8333,-111C105.8333,-111 168.1667,-111 168.1667,-111 173.8333,-111 179.5,-116.6667 179.5,-122.3333 179.5,-122.3333 179.5,-133.6667 179.5,-133.6667 179.5,-139.3333 173.8333,-145 168.1667,-145 168.1667,-145 105.8333,-145 105.8333,-145 100.1667,-145 94.5,-139.3333 94.5,-133.6667 94.5,-133.6667 94.5,-122.3333 94.5,-122.3333 94.5,-116.6667 100.1667,-111 105.8333,-111"/>
</g>
<!-- s_ADJUST_SAMPLER&#45;&gt;s_RECEIVE -->
<g id="edge3" class="edge transition">
<title>s_ADJUST_SAMPLER&#45;&gt;s_RECEIVE</title>
<path fill="none" stroke="#000000" d="M128.1209,-203.8759C129.7035,-190.3516 131.8956,-171.6192 133.7057,-156.1514"/>
<polygon fill="#000000" stroke="#000000" points="137.1995,-156.4076 134.8856,-146.0685 130.247,-155.5939 137.1995,-156.4076"/>
<text text-anchor="start" x="132" y="-178" font-family="Helvetica,sans-Serif" font-size="10.00" fill="#000000">not (r_Bit_Width_Cntr &gt; (c_Clks_Per_Bit / 2)) &#160;&#160;</text>
<text text-anchor="start" x="132" y="-166" font-family="Helvetica,sans-Serif" font-size="10.00" fill="#000000">not (i_Rx = &#39;1&#39;) &#160;&#160;</text>
</g>
<!-- s_END_BIT -->
<g id="node5" class="node state regular">
<title>s_END_BIT</title>
<polygon fill="#ffffff" fill-opacity="0.003922" stroke="transparent" stroke-width="2" points="305.5,-52 220.5,-52 220.5,-16 305.5,-16 305.5,-52"/>
<text text-anchor="start" x="231.8308" y="-30.2" font-family="Helvetica,sans-Serif" font-size="12.00" fill="#000000">s_END_BIT</text>
<path fill="none" stroke="#000000" stroke-width="2" d="M232.8333,-17C232.8333,-17 293.1667,-17 293.1667,-17 298.8333,-17 304.5,-22.6667 304.5,-28.3333 304.5,-28.3333 304.5,-39.6667 304.5,-39.6667 304.5,-45.3333 298.8333,-51 293.1667,-51 293.1667,-51 232.8333,-51 232.8333,-51 227.1667,-51 221.5,-45.3333 221.5,-39.6667 221.5,-39.6667 221.5,-28.3333 221.5,-28.3333 221.5,-22.6667 227.1667,-17 232.8333,-17"/>
</g>
<!-- s_RECEIVE&#45;&gt;s_END_BIT -->
<g id="edge4" class="edge transition">
<title>s_RECEIVE&#45;&gt;s_END_BIT</title>
<path fill="none" stroke="#000000" d="M148.4224,-109.8438C157.1816,-97.0865 170.2485,-80.34 185.019,-69 192.8758,-62.9679 201.9371,-57.702 211.0406,-53.2127"/>
<polygon fill="#000000" stroke="#000000" points="212.5301,-56.38 220.115,-48.9827 209.5726,-50.0354 212.5301,-56.38"/>
<text text-anchor="start" x="185" y="-84" font-family="Helvetica,sans-Serif" font-size="10.00" fill="#000000">not (r_Bit_Width_Cntr &gt; 0) &#160;&#160;</text>
<text text-anchor="start" x="185" y="-72" font-family="Helvetica,sans-Serif" font-size="10.00" fill="#000000">not (r_Bit_Index &lt; (c_Packet_Width &#45; 1)) &#160;&#160;</text>
</g>
<!-- s_END_BIT&#45;&gt;s_IDLE -->
<g id="edge5" class="edge transition">
<title>s_END_BIT&#45;&gt;s_IDLE</title>
<path fill="none" stroke="#000000" d="M305.6974,-38.8707C328.0894,-43.3997 354.609,-52.1388 373,-69 377.2588,-72.9045 378,-75.2222 378,-81 378,-154.5 378,-154.5 378,-154.5 378,-200.7527 391.9848,-210.9219 396,-257 396.926,-267.6264 402.8617,-272.8333 396,-281 390.8901,-287.0818 293.7931,-301.955 236.8007,-310.2214"/>
<polygon fill="#000000" stroke="#000000" points="236.0548,-306.7927 226.6569,-311.6845 237.0541,-313.721 236.0548,-306.7927"/>
<text text-anchor="start" x="380" y="-172" font-family="Helvetica,sans-Serif" font-size="10.00" fill="#000000">i_Rx = &#39;1&#39; &#160;&#160;</text>
</g>
</g>
</svg>
