<?xml version="1.0" encoding="UTF-8" standalone="no"?>
<!DOCTYPE svg PUBLIC "-//W3C//DTD SVG 1.1//EN"
 "http://www.w3.org/Graphics/SVG/1.1/DTD/svg11.dtd">
<!-- Generated by graphviz version 2.40.1 (20161225.0304)
 -->
<!-- Title: state transitions Pages: 1 -->
<svg width="795pt" height="704pt"
 viewBox="0.00 0.00 795.00 704.00" xmlns="http://www.w3.org/2000/svg" xmlns:xlink="http://www.w3.org/1999/xlink">
<g id="graph0" class="graph" transform="scale(1 1) rotate(0) translate(4 700)">
<title>state transitions</title>
<polygon fill="#ffffff" stroke="transparent" points="-4,4 -4,-700 791,-700 791,4 -4,4"/>
<g id="clust1" class="cluster state regular">
<title>cluster_r_State</title>
<path fill="none" stroke="#000000" stroke-width="2" d="M20,-8C20,-8 767,-8 767,-8 773,-8 779,-14 779,-20 779,-20 779,-676 779,-676 779,-682 773,-688 767,-688 767,-688 20,-688 20,-688 14,-688 8,-682 8,-676 8,-676 8,-20 8,-20 8,-14 14,-8 20,-8"/>
<text text-anchor="start" x="374.1602" y="-669.2" font-family="Helvetica,sans-Serif" font-size="12.00" fill="#000000">r_State</text>
</g>
<!-- r_State -->
<!-- s_IDLE -->
<g id="node2" class="node state regular">
<title>s_IDLE</title>
<polygon fill="#ffffff" fill-opacity="0.003922" stroke="transparent" stroke-width="2" points="426.5,-650 365.5,-650 365.5,-614 426.5,-614 426.5,-650"/>
<text text-anchor="start" x="376.829" y="-628.2" font-family="Helvetica,sans-Serif" font-size="12.00" fill="#000000">s_IDLE</text>
<path fill="none" stroke="#000000" stroke-width="2" d="M377.8333,-615C377.8333,-615 414.1667,-615 414.1667,-615 419.8333,-615 425.5,-620.6667 425.5,-626.3333 425.5,-626.3333 425.5,-637.6667 425.5,-637.6667 425.5,-643.3333 419.8333,-649 414.1667,-649 414.1667,-649 377.8333,-649 377.8333,-649 372.1667,-649 366.5,-643.3333 366.5,-637.6667 366.5,-637.6667 366.5,-626.3333 366.5,-626.3333 366.5,-620.6667 372.1667,-615 377.8333,-615"/>
</g>
<!-- s_START_1 -->
<g id="node3" class="node state regular">
<title>s_START_1</title>
<polygon fill="#ffffff" fill-opacity="0.003922" stroke="transparent" stroke-width="2" points="324.5,-568 237.5,-568 237.5,-532 324.5,-532 324.5,-568"/>
<text text-anchor="start" x="248.8288" y="-546.2" font-family="Helvetica,sans-Serif" font-size="12.00" fill="#000000">s_START_1</text>
<path fill="none" stroke="#000000" stroke-width="2" d="M249.8333,-533C249.8333,-533 312.1667,-533 312.1667,-533 317.8333,-533 323.5,-538.6667 323.5,-544.3333 323.5,-544.3333 323.5,-555.6667 323.5,-555.6667 323.5,-561.3333 317.8333,-567 312.1667,-567 312.1667,-567 249.8333,-567 249.8333,-567 244.1667,-567 238.5,-561.3333 238.5,-555.6667 238.5,-555.6667 238.5,-544.3333 238.5,-544.3333 238.5,-538.6667 244.1667,-533 249.8333,-533"/>
</g>
<!-- s_IDLE&#45;&gt;s_START_1 -->
<g id="edge1" class="edge transition">
<title>s_IDLE&#45;&gt;s_START_1</title>
<path fill="none" stroke="#000000" d="M365.4504,-623.7005C348.7844,-618.0957 328.5105,-609.4229 313.291,-597 306.6042,-591.5419 300.7267,-584.35 295.8827,-577.2384"/>
<polygon fill="#000000" stroke="#000000" points="298.6106,-575.0024 290.3168,-568.4097 292.6892,-578.7355 298.6106,-575.0024"/>
<text text-anchor="start" x="313" y="-588" font-family="Helvetica,sans-Serif" font-size="10.00" fill="#000000">r_CMD_Valid = &#39;0&#39; and i_CMD_Valid = &#39;1&#39; and r_CMD = c_START &#160;&#160;</text>
</g>
<!-- s_START_2 -->
<g id="node4" class="node state regular">
<title>s_START_2</title>
<polygon fill="#ffffff" fill-opacity="0.003922" stroke="transparent" stroke-width="2" points="324.5,-486 237.5,-486 237.5,-450 324.5,-450 324.5,-486"/>
<text text-anchor="start" x="248.8288" y="-464.2" font-family="Helvetica,sans-Serif" font-size="12.00" fill="#000000">s_START_2</text>
<path fill="none" stroke="#000000" stroke-width="2" d="M249.8333,-451C249.8333,-451 312.1667,-451 312.1667,-451 317.8333,-451 323.5,-456.6667 323.5,-462.3333 323.5,-462.3333 323.5,-473.6667 323.5,-473.6667 323.5,-479.3333 317.8333,-485 312.1667,-485 312.1667,-485 249.8333,-485 249.8333,-485 244.1667,-485 238.5,-479.3333 238.5,-473.6667 238.5,-473.6667 238.5,-462.3333 238.5,-462.3333 238.5,-456.6667 244.1667,-451 249.8333,-451"/>
</g>
<!-- s_START_1&#45;&gt;s_START_2 -->
<g id="edge2" class="edge transition">
<title>s_START_1&#45;&gt;s_START_2</title>
<path fill="none" stroke="#000000" d="M281,-531.8015C281,-521.3976 281,-508.1215 281,-496.3768"/>
<polygon fill="#000000" stroke="#000000" points="284.5001,-496.1476 281,-486.1476 277.5001,-496.1476 284.5001,-496.1476"/>
<text text-anchor="start" x="281" y="-506" font-family="Helvetica,sans-Serif" font-size="10.00" fill="#000000">time_elapsed(c_Half_Period &#45; 1) &#160;&#160;</text>
</g>
<!-- s_HOLD -->
<g id="node5" class="node state regular">
<title>s_HOLD</title>
<polygon fill="#ffffff" fill-opacity="0.003922" stroke="transparent" stroke-width="2" points="315,-404 247,-404 247,-368 315,-368 315,-404"/>
<text text-anchor="start" x="257.999" y="-382.2" font-family="Helvetica,sans-Serif" font-size="12.00" fill="#000000">s_HOLD</text>
<path fill="none" stroke="#000000" stroke-width="2" d="M259.3333,-369C259.3333,-369 302.6667,-369 302.6667,-369 308.3333,-369 314,-374.6667 314,-380.3333 314,-380.3333 314,-391.6667 314,-391.6667 314,-397.3333 308.3333,-403 302.6667,-403 302.6667,-403 259.3333,-403 259.3333,-403 253.6667,-403 248,-397.3333 248,-391.6667 248,-391.6667 248,-380.3333 248,-380.3333 248,-374.6667 253.6667,-369 259.3333,-369"/>
</g>
<!-- s_START_2&#45;&gt;s_HOLD -->
<g id="edge3" class="edge transition">
<title>s_START_2&#45;&gt;s_HOLD</title>
<path fill="none" stroke="#000000" d="M281,-449.8015C281,-439.3976 281,-426.1215 281,-414.3768"/>
<polygon fill="#000000" stroke="#000000" points="284.5001,-414.1476 281,-404.1476 277.5001,-414.1476 284.5001,-414.1476"/>
<text text-anchor="start" x="281" y="-424" font-family="Helvetica,sans-Serif" font-size="10.00" fill="#000000">time_elapsed(c_Half_Period &#45; 1) &#160;&#160;</text>
</g>
<!-- s_DATA_1 -->
<g id="node6" class="node state regular">
<title>s_DATA_1</title>
<polygon fill="#ffffff" fill-opacity="0.003922" stroke="transparent" stroke-width="2" points="378,-310 298,-310 298,-274 378,-274 378,-310"/>
<text text-anchor="start" x="308.9942" y="-288.2" font-family="Helvetica,sans-Serif" font-size="12.00" fill="#000000">s_DATA_1</text>
<path fill="none" stroke="#000000" stroke-width="2" d="M310.3333,-275C310.3333,-275 365.6667,-275 365.6667,-275 371.3333,-275 377,-280.6667 377,-286.3333 377,-286.3333 377,-297.6667 377,-297.6667 377,-303.3333 371.3333,-309 365.6667,-309 365.6667,-309 310.3333,-309 310.3333,-309 304.6667,-309 299,-303.3333 299,-297.6667 299,-297.6667 299,-286.3333 299,-286.3333 299,-280.6667 304.6667,-275 310.3333,-275"/>
</g>
<!-- s_HOLD&#45;&gt;s_DATA_1 -->
<g id="edge4" class="edge transition">
<title>s_HOLD&#45;&gt;s_DATA_1</title>
<path fill="none" stroke="#000000" d="M291.9902,-367.8759C300.4276,-353.9615 312.208,-334.5342 321.7361,-318.8211"/>
<polygon fill="#000000" stroke="#000000" points="324.8513,-320.4341 327.0436,-310.0685 318.8657,-316.8045 324.8513,-320.4341"/>
<text text-anchor="start" x="316" y="-342" font-family="Helvetica,sans-Serif" font-size="10.00" fill="#000000">r_CMD = c_WRITE or r_CMD = c_READ &#160;&#160;</text>
<text text-anchor="start" x="316" y="-330" font-family="Helvetica,sans-Serif" font-size="10.00" fill="#000000">r_CMD_Valid = &#39;0&#39; and i_CMD_Valid = &#39;1&#39; &#160;&#160;</text>
</g>
<!-- s_STOP_1 -->
<g id="node10" class="node state regular">
<title>s_STOP_1</title>
<polygon fill="#ffffff" fill-opacity="0.003922" stroke="transparent" stroke-width="2" points="616,-310 536,-310 536,-274 616,-274 616,-310"/>
<text text-anchor="start" x="546.6582" y="-288.2" font-family="Helvetica,sans-Serif" font-size="12.00" fill="#000000">s_STOP_1</text>
<path fill="none" stroke="#000000" stroke-width="2" d="M548.3333,-275C548.3333,-275 603.6667,-275 603.6667,-275 609.3333,-275 615,-280.6667 615,-286.3333 615,-286.3333 615,-297.6667 615,-297.6667 615,-303.3333 609.3333,-309 603.6667,-309 603.6667,-309 548.3333,-309 548.3333,-309 542.6667,-309 537,-303.3333 537,-297.6667 537,-297.6667 537,-286.3333 537,-286.3333 537,-280.6667 542.6667,-275 548.3333,-275"/>
</g>
<!-- s_HOLD&#45;&gt;s_STOP_1 -->
<g id="edge5" class="edge transition">
<title>s_HOLD&#45;&gt;s_STOP_1</title>
<path fill="none" stroke="#000000" d="M315.2928,-383.2812C370.8859,-378.4638 477.9017,-367.3693 512,-351 528.3164,-343.1671 543.3737,-329.7499 554.7788,-317.6879"/>
<polygon fill="#000000" stroke="#000000" points="557.5986,-319.7886 561.7227,-310.0294 552.4128,-315.0867 557.5986,-319.7886"/>
<text text-anchor="start" x="545" y="-342" font-family="Helvetica,sans-Serif" font-size="10.00" fill="#000000">r_CMD = c_STOP &#160;&#160;</text>
<text text-anchor="start" x="545" y="-330" font-family="Helvetica,sans-Serif" font-size="10.00" fill="#000000">r_CMD_Valid = &#39;0&#39; and i_CMD_Valid = &#39;1&#39; &#160;&#160;</text>
</g>
<!-- s_RESTART -->
<g id="node12" class="node state regular">
<title>s_RESTART</title>
<polygon fill="#ffffff" fill-opacity="0.003922" stroke="transparent" stroke-width="2" points="107,-310 17,-310 17,-274 107,-274 107,-310"/>
<text text-anchor="start" x="27.6668" y="-288.2" font-family="Helvetica,sans-Serif" font-size="12.00" fill="#000000">s_RESTART</text>
<path fill="none" stroke="#000000" stroke-width="2" d="M29.3333,-275C29.3333,-275 94.6667,-275 94.6667,-275 100.3333,-275 106,-280.6667 106,-286.3333 106,-286.3333 106,-297.6667 106,-297.6667 106,-303.3333 100.3333,-309 94.6667,-309 94.6667,-309 29.3333,-309 29.3333,-309 23.6667,-309 18,-303.3333 18,-297.6667 18,-297.6667 18,-286.3333 18,-286.3333 18,-280.6667 23.6667,-275 29.3333,-275"/>
</g>
<!-- s_HOLD&#45;&gt;s_RESTART -->
<g id="edge6" class="edge transition">
<title>s_HOLD&#45;&gt;s_RESTART</title>
<path fill="none" stroke="#000000" d="M246.9881,-384.3945C196.006,-381.2978 103.1561,-372.7648 78.912,-351 70.2593,-343.2322 65.9104,-331.3661 63.7683,-320.3071"/>
<polygon fill="#000000" stroke="#000000" points="67.192,-319.5211 62.3224,-310.1116 60.2613,-320.5041 67.192,-319.5211"/>
<text text-anchor="start" x="78" y="-342" font-family="Helvetica,sans-Serif" font-size="10.00" fill="#000000">r_CMD = c_RESTART &#160;&#160;</text>
<text text-anchor="start" x="78" y="-330" font-family="Helvetica,sans-Serif" font-size="10.00" fill="#000000">r_CMD_Valid = &#39;0&#39; and i_CMD_Valid = &#39;1&#39; &#160;&#160;</text>
</g>
<!-- s_DATA_2 -->
<g id="node7" class="node state regular">
<title>s_DATA_2</title>
<polygon fill="#ffffff" fill-opacity="0.003922" stroke="transparent" stroke-width="2" points="487,-228 407,-228 407,-192 487,-192 487,-228"/>
<text text-anchor="start" x="417.9942" y="-206.2" font-family="Helvetica,sans-Serif" font-size="12.00" fill="#000000">s_DATA_2</text>
<path fill="none" stroke="#000000" stroke-width="2" d="M419.3333,-193C419.3333,-193 474.6667,-193 474.6667,-193 480.3333,-193 486,-198.6667 486,-204.3333 486,-204.3333 486,-215.6667 486,-215.6667 486,-221.3333 480.3333,-227 474.6667,-227 474.6667,-227 419.3333,-227 419.3333,-227 413.6667,-227 408,-221.3333 408,-215.6667 408,-215.6667 408,-204.3333 408,-204.3333 408,-198.6667 413.6667,-193 419.3333,-193"/>
</g>
<!-- s_DATA_1&#45;&gt;s_DATA_2 -->
<g id="edge7" class="edge transition">
<title>s_DATA_1&#45;&gt;s_DATA_2</title>
<path fill="none" stroke="#000000" d="M362.1906,-273.8015C377.5725,-262.2298 397.6775,-247.105 414.4515,-234.486"/>
<polygon fill="#000000" stroke="#000000" points="416.9899,-236.9563 422.877,-228.1476 412.7817,-231.3624 416.9899,-236.9563"/>
<text text-anchor="start" x="399" y="-248" font-family="Helvetica,sans-Serif" font-size="10.00" fill="#000000">time_elapsed(c_Quarter_Period &#45; 1) &#160;&#160;</text>
</g>
<!-- s_DATA_3 -->
<g id="node8" class="node state regular">
<title>s_DATA_3</title>
<polygon fill="#ffffff" fill-opacity="0.003922" stroke="transparent" stroke-width="2" points="515,-134 435,-134 435,-98 515,-98 515,-134"/>
<text text-anchor="start" x="445.9942" y="-112.2" font-family="Helvetica,sans-Serif" font-size="12.00" fill="#000000">s_DATA_3</text>
<path fill="none" stroke="#000000" stroke-width="2" d="M447.3333,-99C447.3333,-99 502.6667,-99 502.6667,-99 508.3333,-99 514,-104.6667 514,-110.3333 514,-110.3333 514,-121.6667 514,-121.6667 514,-127.3333 508.3333,-133 502.6667,-133 502.6667,-133 447.3333,-133 447.3333,-133 441.6667,-133 436,-127.3333 436,-121.6667 436,-121.6667 436,-110.3333 436,-110.3333 436,-104.6667 441.6667,-99 447.3333,-99"/>
</g>
<!-- s_DATA_2&#45;&gt;s_DATA_3 -->
<g id="edge8" class="edge transition">
<title>s_DATA_2&#45;&gt;s_DATA_3</title>
<path fill="none" stroke="#000000" d="M487.17,-196.4075C496.6103,-191.2285 505.5102,-184.2594 511,-175 516.4399,-165.8248 515.1512,-160.8257 511,-151 509.6356,-147.7706 507.8114,-144.692 505.7054,-141.7965"/>
<polygon fill="#000000" stroke="#000000" points="508.3288,-139.4789 499.1726,-134.1484 503.0062,-144.0253 508.3288,-139.4789"/>
<text text-anchor="start" x="514" y="-160" font-family="Helvetica,sans-Serif" font-size="10.00" fill="#000000">time_elapsed(c_Quarter_Period &#45; 1) &#160;&#160;</text>
</g>
<!-- s_DATA_4 -->
<g id="node9" class="node state regular">
<title>s_DATA_4</title>
<polygon fill="#ffffff" fill-opacity="0.003922" stroke="transparent" stroke-width="2" points="378,-52 298,-52 298,-16 378,-16 378,-52"/>
<text text-anchor="start" x="308.9942" y="-30.2" font-family="Helvetica,sans-Serif" font-size="12.00" fill="#000000">s_DATA_4</text>
<path fill="none" stroke="#000000" stroke-width="2" d="M310.3333,-17C310.3333,-17 365.6667,-17 365.6667,-17 371.3333,-17 377,-22.6667 377,-28.3333 377,-28.3333 377,-39.6667 377,-39.6667 377,-45.3333 371.3333,-51 365.6667,-51 365.6667,-51 310.3333,-51 310.3333,-51 304.6667,-51 299,-45.3333 299,-39.6667 299,-39.6667 299,-28.3333 299,-28.3333 299,-22.6667 304.6667,-17 310.3333,-17"/>
</g>
<!-- s_DATA_3&#45;&gt;s_DATA_4 -->
<g id="edge9" class="edge transition">
<title>s_DATA_3&#45;&gt;s_DATA_4</title>
<path fill="none" stroke="#000000" d="M444.5953,-97.8015C424.7299,-85.9113 398.597,-70.2697 377.1785,-57.4499"/>
<polygon fill="#000000" stroke="#000000" points="378.6977,-54.2802 368.3197,-52.1476 375.1027,-60.2865 378.6977,-54.2802"/>
<text text-anchor="start" x="415" y="-72" font-family="Helvetica,sans-Serif" font-size="10.00" fill="#000000">time_elapsed(c_Quarter_Period &#45; 1) &#160;&#160;</text>
</g>
<!-- s_DATA_4&#45;&gt;s_HOLD -->
<g id="edge11" class="edge transition">
<title>s_DATA_4&#45;&gt;s_HOLD</title>
<path fill="none" stroke="#000000" d="M297.9601,-38.6015C241.9528,-45.5904 147,-59.6958 147,-75 147,-183.5 147,-183.5 147,-183.5 147,-267.7902 230.915,-252.8513 271,-327 276.0603,-336.3605 278.6722,-347.675 279.9848,-357.8817"/>
<polygon fill="#000000" stroke="#000000" points="276.514,-358.3584 280.9305,-367.9888 283.4836,-357.7062 276.514,-358.3584"/>
<text text-anchor="start" x="158" y="-213" font-family="Helvetica,sans-Serif" font-size="10.00" fill="#000000">time_elapsed(c_Quarter_Period &#45; 1) &#160;&#160;</text>
<text text-anchor="start" x="158" y="-201" font-family="Helvetica,sans-Serif" font-size="10.00" fill="#000000">not (r_Bit_Cntr &gt; 0) &#160;&#160;</text>
</g>
<!-- s_DATA_4&#45;&gt;s_DATA_1 -->
<g id="edge10" class="edge transition">
<title>s_DATA_4&#45;&gt;s_DATA_1</title>
<path fill="none" stroke="#000000" d="M338,-52.3688C338,-59.4426 338,-67.5972 338,-75 338,-251 338,-251 338,-251 338,-255.0484 338,-259.3216 338,-263.52"/>
<polygon fill="#000000" stroke="#000000" points="334.5001,-263.6312 338,-273.6312 341.5001,-263.6313 334.5001,-263.6312"/>
<text text-anchor="start" x="338" y="-166" font-family="Helvetica,sans-Serif" font-size="10.00" fill="#000000">r_Bit_Cntr &gt; 0 &#160;&#160;</text>
<text text-anchor="start" x="338" y="-154" font-family="Helvetica,sans-Serif" font-size="10.00" fill="#000000">time_elapsed(c_Quarter_Period &#45; 1) &#160;&#160;</text>
</g>
<!-- s_STOP_2 -->
<g id="node11" class="node state regular">
<title>s_STOP_2</title>
<polygon fill="#ffffff" fill-opacity="0.003922" stroke="transparent" stroke-width="2" points="703,-228 623,-228 623,-192 703,-192 703,-228"/>
<text text-anchor="start" x="633.6582" y="-206.2" font-family="Helvetica,sans-Serif" font-size="12.00" fill="#000000">s_STOP_2</text>
<path fill="none" stroke="#000000" stroke-width="2" d="M635.3333,-193C635.3333,-193 690.6667,-193 690.6667,-193 696.3333,-193 702,-198.6667 702,-204.3333 702,-204.3333 702,-215.6667 702,-215.6667 702,-221.3333 696.3333,-227 690.6667,-227 690.6667,-227 635.3333,-227 635.3333,-227 629.6667,-227 624,-221.3333 624,-215.6667 624,-215.6667 624,-204.3333 624,-204.3333 624,-198.6667 629.6667,-193 635.3333,-193"/>
</g>
<!-- s_STOP_1&#45;&gt;s_STOP_2 -->
<g id="edge12" class="edge transition">
<title>s_STOP_1&#45;&gt;s_STOP_2</title>
<path fill="none" stroke="#000000" d="M587.9272,-273.9623C594.5072,-264.7342 603.182,-253.6542 612.312,-245 616.2897,-241.2296 620.7062,-237.5661 625.2265,-234.1178"/>
<polygon fill="#000000" stroke="#000000" points="627.3772,-236.8813 633.4026,-228.1666 623.2578,-231.2218 627.3772,-236.8813"/>
<text text-anchor="start" x="612" y="-248" font-family="Helvetica,sans-Serif" font-size="10.00" fill="#000000">time_elapsed(c_Half_Period &#45; 1) &#160;&#160;</text>
</g>
<!-- s_STOP_2&#45;&gt;s_IDLE -->
<g id="edge13" class="edge transition">
<title>s_STOP_2&#45;&gt;s_IDLE</title>
<path fill="none" stroke="#000000" d="M703.1473,-217.6627C733.509,-224.6449 770,-236.1297 770,-251 770,-318.5 770,-318.5 770,-318.5 770,-405.0583 619,-354.9417 619,-441.5 619,-591 619,-591 619,-591 619,-609.3179 501.1055,-622.6736 436.7587,-628.5989"/>
<polygon fill="#000000" stroke="#000000" points="436.1854,-625.1362 426.5396,-629.5189 436.8132,-632.108 436.1854,-625.1362"/>
<text text-anchor="start" x="622" y="-424" font-family="Helvetica,sans-Serif" font-size="10.00" fill="#000000">time_elapsed(c_Half_Period &#45; 1) &#160;&#160;</text>
</g>
<!-- s_RESTART&#45;&gt;s_START_1 -->
<g id="edge14" class="edge transition">
<title>s_RESTART&#45;&gt;s_START_1</title>
<path fill="none" stroke="#000000" d="M57.1432,-310.2608C50.1304,-338.2789 38,-393.6573 38,-441.5 38,-509 38,-509 38,-509 38,-528.0384 155.4755,-540.4231 227.0657,-546.2028"/>
<polygon fill="#000000" stroke="#000000" points="227.0317,-549.7108 237.2758,-547.0076 227.5818,-542.7325 227.0317,-549.7108"/>
<text text-anchor="start" x="38" y="-424" font-family="Helvetica,sans-Serif" font-size="10.00" fill="#000000">time_elapsed(c_Half_Period &#45; 1) &#160;&#160;</text>
</g>
</g>
</svg>
