<?xml version="1.0" encoding="UTF-8" standalone="no"?>
<!DOCTYPE svg PUBLIC "-//W3C//DTD SVG 1.1//EN"
 "http://www.w3.org/Graphics/SVG/1.1/DTD/svg11.dtd">
<!-- Generated by graphviz version 2.40.1 (20161225.0304)
 -->
<!-- Title: state transitions Pages: 1 -->
<svg width="659pt" height="282pt"
 viewBox="0.00 0.00 659.37 282.00" xmlns="http://www.w3.org/2000/svg" xmlns:xlink="http://www.w3.org/1999/xlink">
<g id="graph0" class="graph" transform="scale(1 1) rotate(0) translate(4 278)">
<title>state transitions</title>
<polygon fill="#ffffff" stroke="transparent" points="-4,4 -4,-278 655.374,-278 655.374,4 -4,4"/>
<g id="clust1" class="cluster state regular">
<title>cluster_r_State</title>
<path fill="none" stroke="#000000" stroke-width="2" d="M20,-8C20,-8 568,-8 568,-8 574,-8 580,-14 580,-20 580,-20 580,-254 580,-254 580,-260 574,-266 568,-266 568,-266 20,-266 20,-266 14,-266 8,-260 8,-254 8,-254 8,-20 8,-20 8,-14 14,-8 20,-8"/>
<text text-anchor="start" x="274.6602" y="-247.2" font-family="Helvetica,sans-Serif" font-size="12.00" fill="#000000">r_State</text>
</g>
<!-- r_State -->
<!-- s_IDLE -->
<g id="node2" class="node state regular">
<title>s_IDLE</title>
<polygon fill="#ffffff" fill-opacity="0.003922" stroke="transparent" stroke-width="2" points="299.5,-228 238.5,-228 238.5,-192 299.5,-192 299.5,-228"/>
<text text-anchor="start" x="249.829" y="-206.2" font-family="Helvetica,sans-Serif" font-size="12.00" fill="#000000">s_IDLE</text>
<path fill="none" stroke="#000000" stroke-width="2" d="M250.8333,-193C250.8333,-193 287.1667,-193 287.1667,-193 292.8333,-193 298.5,-198.6667 298.5,-204.3333 298.5,-204.3333 298.5,-215.6667 298.5,-215.6667 298.5,-221.3333 292.8333,-227 287.1667,-227 287.1667,-227 250.8333,-227 250.8333,-227 245.1667,-227 239.5,-221.3333 239.5,-215.6667 239.5,-215.6667 239.5,-204.3333 239.5,-204.3333 239.5,-198.6667 245.1667,-193 250.8333,-193"/>
</g>
<!-- s_DRIVE -->
<g id="node3" class="node state regular">
<title>s_DRIVE</title>
<polygon fill="#ffffff" fill-opacity="0.003922" stroke="transparent" stroke-width="2" points="233.5,-146 162.5,-146 162.5,-110 233.5,-110 233.5,-146"/>
<text text-anchor="start" x="173.8316" y="-124.2" font-family="Helvetica,sans-Serif" font-size="12.00" fill="#000000">s_DRIVE</text>
<path fill="none" stroke="#000000" stroke-width="2" d="M174.8333,-111C174.8333,-111 221.1667,-111 221.1667,-111 226.8333,-111 232.5,-116.6667 232.5,-122.3333 232.5,-122.3333 232.5,-133.6667 232.5,-133.6667 232.5,-139.3333 226.8333,-145 221.1667,-145 221.1667,-145 174.8333,-145 174.8333,-145 169.1667,-145 163.5,-139.3333 163.5,-133.6667 163.5,-133.6667 163.5,-122.3333 163.5,-122.3333 163.5,-116.6667 169.1667,-111 174.8333,-111"/>
</g>
<!-- s_IDLE&#45;&gt;s_DRIVE -->
<g id="edge1" class="edge transition">
<title>s_IDLE&#45;&gt;s_DRIVE</title>
<path fill="none" stroke="#000000" d="M238.3778,-194.8259C229.9819,-189.4939 221.4831,-182.8404 215.238,-175 210.7994,-169.4276 207.436,-162.6051 204.9142,-155.9044"/>
<polygon fill="#000000" stroke="#000000" points="208.2214,-154.7568 201.7945,-146.3339 201.5661,-156.9263 208.2214,-154.7568"/>
<text text-anchor="start" x="215" y="-166" font-family="Helvetica,sans-Serif" font-size="10.00" fill="#000000">r_CS = &#39;1&#39; and i_CS = &#39;0&#39; &#160;&#160;</text>
</g>
<!-- s_SAMPLE -->
<g id="node4" class="node state regular">
<title>s_SAMPLE</title>
<polygon fill="#ffffff" fill-opacity="0.003922" stroke="transparent" stroke-width="2" points="356.5,-52 273.5,-52 273.5,-16 356.5,-16 356.5,-52"/>
<text text-anchor="start" x="284.8262" y="-30.2" font-family="Helvetica,sans-Serif" font-size="12.00" fill="#000000">s_SAMPLE</text>
<path fill="none" stroke="#000000" stroke-width="2" d="M285.8333,-17C285.8333,-17 344.1667,-17 344.1667,-17 349.8333,-17 355.5,-22.6667 355.5,-28.3333 355.5,-28.3333 355.5,-39.6667 355.5,-39.6667 355.5,-45.3333 349.8333,-51 344.1667,-51 344.1667,-51 285.8333,-51 285.8333,-51 280.1667,-51 274.5,-45.3333 274.5,-39.6667 274.5,-39.6667 274.5,-28.3333 274.5,-28.3333 274.5,-22.6667 280.1667,-17 285.8333,-17"/>
</g>
<!-- s_DRIVE&#45;&gt;s_SAMPLE -->
<g id="edge2" class="edge transition">
<title>s_DRIVE&#45;&gt;s_SAMPLE</title>
<path fill="none" stroke="#000000" d="M162.192,-125.4299C109.8741,-120.3725 22.1103,-106.179 54.626,-69 68.1305,-53.5587 191.2399,-42.5353 263.2368,-37.3461"/>
<polygon fill="#000000" stroke="#000000" points="263.7409,-40.8193 273.4693,-36.623 263.2474,-33.8367 263.7409,-40.8193"/>
<text text-anchor="start" x="54" y="-78" font-family="Helvetica,sans-Serif" font-size="10.00" fill="#000000">r_SCLK = r_Post_Drive and i_SCLK = r_Pre_Drive &#160;&#160;</text>
</g>
<!-- s_SAMPLE&#45;&gt;s_IDLE -->
<g id="edge3" class="edge transition">
<title>s_SAMPLE&#45;&gt;s_IDLE</title>
<path fill="none" stroke="#000000" d="M356.6958,-37.5136C418.9263,-43.1848 530.1075,-55.1333 542,-69 548.9441,-77.0968 549.0088,-84.9592 542,-93 523.8151,-113.8625 444.1602,-99.3259 418.626,-110 374.8697,-128.2915 373.8132,-149.2298 334,-175 326.0195,-180.1656 317.207,-185.276 308.7145,-189.9295"/>
<polygon fill="#000000" stroke="#000000" points="306.834,-186.9666 299.6794,-194.7808 310.1454,-193.1338 306.834,-186.9666"/>
<text text-anchor="start" x="418" y="-131" font-family="Helvetica,sans-Serif" font-size="10.00" fill="#000000">transmission_done(g_N_Bits &#45; 1) &#160;&#160;</text>
<text text-anchor="start" x="418" y="-119" font-family="Helvetica,sans-Serif" font-size="10.00" fill="#000000">r_SCLK = r_Pre_Drive and i_SCLK = r_Post_Drive &#160;&#160;</text>
</g>
<!-- s_SAMPLE&#45;&gt;s_DRIVE -->
<g id="edge4" class="edge transition">
<title>s_SAMPLE&#45;&gt;s_DRIVE</title>
<path fill="none" stroke="#000000" d="M310.9689,-52.1551C307.2465,-65.0795 300.5053,-82.033 289,-93 276.4184,-104.9929 259.2885,-112.996 243.2835,-118.2805"/>
<polygon fill="#000000" stroke="#000000" points="242.0752,-114.9892 233.5142,-121.2309 244.0991,-121.6903 242.0752,-114.9892"/>
<text text-anchor="start" x="304" y="-84" font-family="Helvetica,sans-Serif" font-size="10.00" fill="#000000">r_SCLK = r_Pre_Drive and i_SCLK = r_Post_Drive &#160;&#160;</text>
<text text-anchor="start" x="304" y="-72" font-family="Helvetica,sans-Serif" font-size="10.00" fill="#000000">not (transmission_done(g_N_Bits &#45; 1)) &#160;&#160;</text>
</g>
</g>
</svg>
