<?xml version="1.0" encoding="UTF-8" standalone="no"?>
<!DOCTYPE svg PUBLIC "-//W3C//DTD SVG 1.1//EN"
 "http://www.w3.org/Graphics/SVG/1.1/DTD/svg11.dtd">
<!-- Generated by graphviz version 2.40.1 (20161225.0304)
 -->
<!-- Title: state transitions Pages: 1 -->
<svg width="582pt" height="540pt"
 viewBox="0.00 0.00 582.00 540.00" xmlns="http://www.w3.org/2000/svg" xmlns:xlink="http://www.w3.org/1999/xlink">
<g id="graph0" class="graph" transform="scale(1 1) rotate(0) translate(4 536)">
<title>state transitions</title>
<polygon fill="#ffffff" stroke="transparent" points="-4,4 -4,-536 578,-536 578,4 -4,4"/>
<g id="clust1" class="cluster state regular">
<title>cluster_r_State</title>
<path fill="none" stroke="#000000" stroke-width="2" d="M20,-8C20,-8 554,-8 554,-8 560,-8 566,-14 566,-20 566,-20 566,-512 566,-512 566,-518 560,-524 554,-524 554,-524 20,-524 20,-524 14,-524 8,-518 8,-512 8,-512 8,-20 8,-20 8,-14 14,-8 20,-8"/>
<text text-anchor="start" x="267.6602" y="-505.2" font-family="Helvetica,sans-Serif" font-size="12.00" fill="#000000">r_State</text>
</g>
<!-- r_State -->
<!-- s_IDLE -->
<g id="node2" class="node state regular">
<title>s_IDLE</title>
<polygon fill="#ffffff" fill-opacity="0.003922" stroke="transparent" stroke-width="2" points="401.5,-486 340.5,-486 340.5,-450 401.5,-450 401.5,-486"/>
<text text-anchor="start" x="351.829" y="-464.2" font-family="Helvetica,sans-Serif" font-size="12.00" fill="#000000">s_IDLE</text>
<path fill="none" stroke="#000000" stroke-width="2" d="M352.8333,-451C352.8333,-451 389.1667,-451 389.1667,-451 394.8333,-451 400.5,-456.6667 400.5,-462.3333 400.5,-462.3333 400.5,-473.6667 400.5,-473.6667 400.5,-479.3333 394.8333,-485 389.1667,-485 389.1667,-485 352.8333,-485 352.8333,-485 347.1667,-485 341.5,-479.3333 341.5,-473.6667 341.5,-473.6667 341.5,-462.3333 341.5,-462.3333 341.5,-456.6667 347.1667,-451 352.8333,-451"/>
</g>
<!-- s_SETUP -->
<g id="node3" class="node state regular">
<title>s_SETUP</title>
<polygon fill="#ffffff" fill-opacity="0.003922" stroke="transparent" stroke-width="2" points="316,-404 242,-404 242,-368 316,-368 316,-404"/>
<text text-anchor="start" x="252.6636" y="-382.2" font-family="Helvetica,sans-Serif" font-size="12.00" fill="#000000">s_SETUP</text>
<path fill="none" stroke="#000000" stroke-width="2" d="M254.3333,-369C254.3333,-369 303.6667,-369 303.6667,-369 309.3333,-369 315,-374.6667 315,-380.3333 315,-380.3333 315,-391.6667 315,-391.6667 315,-397.3333 309.3333,-403 303.6667,-403 303.6667,-403 254.3333,-403 254.3333,-403 248.6667,-403 243,-397.3333 243,-391.6667 243,-391.6667 243,-380.3333 243,-380.3333 243,-374.6667 248.6667,-369 254.3333,-369"/>
</g>
<!-- s_IDLE&#45;&gt;s_SETUP -->
<g id="edge1" class="edge transition">
<title>s_IDLE&#45;&gt;s_SETUP</title>
<path fill="none" stroke="#000000" d="M340.3867,-452.9568C330.8125,-447.4392 320.5982,-440.6477 312.322,-433 306.0203,-427.1769 300.2004,-419.9791 295.2469,-412.9816"/>
<polygon fill="#000000" stroke="#000000" points="297.9361,-410.707 289.4649,-404.3439 292.1191,-414.6009 297.9361,-410.707"/>
<text text-anchor="start" x="312" y="-424" font-family="Helvetica,sans-Serif" font-size="10.00" fill="#000000">r_Send = &#39;0&#39; and i_Send = &#39;1&#39; &#160;&#160;</text>
</g>
<!-- s_DRIVE -->
<g id="node4" class="node state regular">
<title>s_DRIVE</title>
<polygon fill="#ffffff" fill-opacity="0.003922" stroke="transparent" stroke-width="2" points="269.5,-322 198.5,-322 198.5,-286 269.5,-286 269.5,-322"/>
<text text-anchor="start" x="209.8316" y="-300.2" font-family="Helvetica,sans-Serif" font-size="12.00" fill="#000000">s_DRIVE</text>
<path fill="none" stroke="#000000" stroke-width="2" d="M210.8333,-287C210.8333,-287 257.1667,-287 257.1667,-287 262.8333,-287 268.5,-292.6667 268.5,-298.3333 268.5,-298.3333 268.5,-309.6667 268.5,-309.6667 268.5,-315.3333 262.8333,-321 257.1667,-321 257.1667,-321 210.8333,-321 210.8333,-321 205.1667,-321 199.5,-315.3333 199.5,-309.6667 199.5,-309.6667 199.5,-298.3333 199.5,-298.3333 199.5,-292.6667 205.1667,-287 210.8333,-287"/>
</g>
<!-- s_SETUP&#45;&gt;s_DRIVE -->
<g id="edge2" class="edge transition">
<title>s_SETUP&#45;&gt;s_DRIVE</title>
<path fill="none" stroke="#000000" d="M269.013,-367.8015C263.0705,-356.973 255.4205,-343.033 248.7878,-330.9466"/>
<polygon fill="#000000" stroke="#000000" points="251.8384,-329.2304 243.959,-322.1476 245.7017,-332.5981 251.8384,-329.2304"/>
<text text-anchor="start" x="259" y="-342" font-family="Helvetica,sans-Serif" font-size="10.00" fill="#000000">not (r_Setup_Cntr &gt; 0) &#160;&#160;</text>
</g>
<!-- s_SAMPLE -->
<g id="node5" class="node state regular">
<title>s_SAMPLE</title>
<polygon fill="#ffffff" fill-opacity="0.003922" stroke="transparent" stroke-width="2" points="275.5,-228 192.5,-228 192.5,-192 275.5,-192 275.5,-228"/>
<text text-anchor="start" x="203.8262" y="-206.2" font-family="Helvetica,sans-Serif" font-size="12.00" fill="#000000">s_SAMPLE</text>
<path fill="none" stroke="#000000" stroke-width="2" d="M204.8333,-193C204.8333,-193 263.1667,-193 263.1667,-193 268.8333,-193 274.5,-198.6667 274.5,-204.3333 274.5,-204.3333 274.5,-215.6667 274.5,-215.6667 274.5,-221.3333 268.8333,-227 263.1667,-227 263.1667,-227 204.8333,-227 204.8333,-227 199.1667,-227 193.5,-221.3333 193.5,-215.6667 193.5,-215.6667 193.5,-204.3333 193.5,-204.3333 193.5,-198.6667 199.1667,-193 204.8333,-193"/>
</g>
<!-- s_DRIVE&#45;&gt;s_SAMPLE -->
<g id="edge3" class="edge transition">
<title>s_DRIVE&#45;&gt;s_SAMPLE</title>
<path fill="none" stroke="#000000" d="M198.1348,-302.2019C151.2622,-299.0148 73.0414,-290.539 55.312,-269 48.5331,-260.7645 48.5331,-253.2355 55.312,-245 71.1744,-225.7292 135.4584,-216.9152 182.3909,-212.99"/>
<polygon fill="#000000" stroke="#000000" points="182.7204,-216.475 192.4157,-212.2027 182.1723,-209.4965 182.7204,-216.475"/>
<text text-anchor="start" x="55" y="-254" font-family="Helvetica,sans-Serif" font-size="10.00" fill="#000000">time_elapsed(c_Half_Period &#45; 1) &#160;&#160;</text>
</g>
<!-- s_SAMPLE&#45;&gt;s_DRIVE -->
<g id="edge5" class="edge transition">
<title>s_SAMPLE&#45;&gt;s_DRIVE</title>
<path fill="none" stroke="#000000" d="M234,-228.0685C234,-241.5785 234,-260.3082 234,-275.785"/>
<polygon fill="#000000" stroke="#000000" points="230.5001,-275.8758 234,-285.8759 237.5001,-275.8759 230.5001,-275.8758"/>
<text text-anchor="start" x="234" y="-260" font-family="Helvetica,sans-Serif" font-size="10.00" fill="#000000">time_elapsed(c_Half_Period &#45; 1) &#160;&#160;</text>
<text text-anchor="start" x="234" y="-248" font-family="Helvetica,sans-Serif" font-size="10.00" fill="#000000">not (transmission_done(g_N_Bits &#45; 1)) &#160;&#160;</text>
</g>
<!-- s_HOLD -->
<g id="node6" class="node state regular">
<title>s_HOLD</title>
<polygon fill="#ffffff" fill-opacity="0.003922" stroke="transparent" stroke-width="2" points="292,-134 224,-134 224,-98 292,-98 292,-134"/>
<text text-anchor="start" x="234.999" y="-112.2" font-family="Helvetica,sans-Serif" font-size="12.00" fill="#000000">s_HOLD</text>
<path fill="none" stroke="#000000" stroke-width="2" d="M236.3333,-99C236.3333,-99 279.6667,-99 279.6667,-99 285.3333,-99 291,-104.6667 291,-110.3333 291,-110.3333 291,-121.6667 291,-121.6667 291,-127.3333 285.3333,-133 279.6667,-133 279.6667,-133 236.3333,-133 236.3333,-133 230.6667,-133 225,-127.3333 225,-121.6667 225,-121.6667 225,-110.3333 225,-110.3333 225,-104.6667 230.6667,-99 236.3333,-99"/>
</g>
<!-- s_SAMPLE&#45;&gt;s_HOLD -->
<g id="edge4" class="edge transition">
<title>s_SAMPLE&#45;&gt;s_HOLD</title>
<path fill="none" stroke="#000000" d="M238.6274,-191.8759C242.0804,-178.3516 246.8632,-159.6192 250.8124,-144.1514"/>
<polygon fill="#000000" stroke="#000000" points="254.3041,-144.6236 253.3868,-134.0685 247.5216,-142.8918 254.3041,-144.6236"/>
<text text-anchor="start" x="248" y="-166" font-family="Helvetica,sans-Serif" font-size="10.00" fill="#000000">transmission_done(g_N_Bits &#45; 1) &#160;&#160;</text>
<text text-anchor="start" x="248" y="-154" font-family="Helvetica,sans-Serif" font-size="10.00" fill="#000000">time_elapsed(c_Half_Period &#45; 1) &#160;&#160;</text>
</g>
<!-- s_TURNAROUND -->
<g id="node7" class="node state regular">
<title>s_TURNAROUND</title>
<polygon fill="#ffffff" fill-opacity="0.003922" stroke="transparent" stroke-width="2" points="428.5,-52 309.5,-52 309.5,-16 428.5,-16 428.5,-52"/>
<text text-anchor="start" x="320.5106" y="-30.2" font-family="Helvetica,sans-Serif" font-size="12.00" fill="#000000">s_TURNAROUND</text>
<path fill="none" stroke="#000000" stroke-width="2" d="M321.8333,-17C321.8333,-17 416.1667,-17 416.1667,-17 421.8333,-17 427.5,-22.6667 427.5,-28.3333 427.5,-28.3333 427.5,-39.6667 427.5,-39.6667 427.5,-45.3333 421.8333,-51 416.1667,-51 416.1667,-51 321.8333,-51 321.8333,-51 316.1667,-51 310.5,-45.3333 310.5,-39.6667 310.5,-39.6667 310.5,-28.3333 310.5,-28.3333 310.5,-22.6667 316.1667,-17 321.8333,-17"/>
</g>
<!-- s_HOLD&#45;&gt;s_TURNAROUND -->
<g id="edge6" class="edge transition">
<title>s_HOLD&#45;&gt;s_TURNAROUND</title>
<path fill="none" stroke="#000000" d="M282.6345,-97.8015C298.4424,-86.1237 319.1486,-70.8272 336.3236,-58.1393"/>
<polygon fill="#000000" stroke="#000000" points="338.4707,-60.9046 344.4344,-52.1476 334.3114,-55.2743 338.4707,-60.9046"/>
<text text-anchor="start" x="320" y="-72" font-family="Helvetica,sans-Serif" font-size="10.00" fill="#000000">not (r_Hold_Cntr &gt; 0) &#160;&#160;</text>
</g>
<!-- s_TURNAROUND&#45;&gt;s_IDLE -->
<g id="edge7" class="edge transition">
<title>s_TURNAROUND&#45;&gt;s_IDLE</title>
<path fill="none" stroke="#000000" d="M426.3632,-52.1092C442.1386,-58.8259 455,-66.8125 455,-75 455,-427 455,-427 455,-427 455,-437.6247 433.0225,-448.1074 411.5506,-455.8135"/>
<polygon fill="#000000" stroke="#000000" points="410.1299,-452.6003 401.8015,-459.1493 412.3961,-459.2234 410.1299,-452.6003"/>
<text text-anchor="start" x="455" y="-254" font-family="Helvetica,sans-Serif" font-size="10.00" fill="#000000">not (r_Turn_Cntr &gt; 0) &#160;&#160;</text>
</g>
</g>
</svg>
